<?xml version="1.0" encoding="utf-8"?>
<!-- Generator: Adobe Illustrator 21.1.0, SVG Export Plug-In . SVG Version: 6.00 Build 0)  -->
<svg version="1.1" id="svg" xmlns="http://www.w3.org/2000/svg" xmlns:xlink="http://www.w3.org/1999/xlink" x="0px" y="0px"
	 viewBox="0 0 601 601" style="enable-background:new 0 0 601 601;" xml:space="preserve">
<style type="text/css">
	.st0{fill:#FFFFFF;}
</style>
<rect class="st0" width="601" height="601"/>
<g>
	<g>
		<defs>
			<path id="SVGID_1_" d="M404.1,287.9h95.7v-63.7v-63.7l-1.4-0.1c-7.5-0.7-11.6-1.8-15.1-4c-12.4-7.7-14.6-35.4-5.2-64.6
				c0.6-1.7,0.7-2.6,0.6-2.6c-0.1,0-2.5-0.7-5.2-1.5c-2.7-0.8-8.9-2.6-13.7-4s-11.5-3.4-15-4.4c-3.5-1-6.4-1.8-6.4-1.8
				c-0.1,0-0.6,0.9-1.2,2c-6,10.5-10.2,11.9-35.2,11.7c-21.6-0.2-25.1-1.5-30.9-11.6c-0.7-1.1-1.2-2.1-1.2-2.1c0-0.1-4.2,1.2-23.9,7
				c-7.8,2.3-14.7,4.3-15.4,4.5c-0.7,0.2-1.2,0.4-1.2,0.5c0,0.1,0.5,1.8,1.1,3.8c8.2,26.6,7,51.3-3,61.1c-3.7,3.7-7.9,5.1-17.9,6.1
				l-1.2,0.1v63.7v63.7H404.1"/>
		</defs>
		<clipPath id="SVGID_2_">
			<use xlink:href="#SVGID_1_"  style="overflow:visible;"/>
		</clipPath>
		<g style="clip-path:url(#SVGID_2_);">

				<image style="overflow:visible;" width="4096" height="4096" xlink:href="unnamed.jpg"  transform="matrix(6.977339e-02 0 0 6.977339e-02 259.3254 58.3644)">
			</image>
		</g>
	</g>
	<g>
		<g>
			<defs>
				<path id="SVGID_3_" d="M269.7,16.4c-12.6,0-53.8,0.1-91.5,0.1l-68.6,0.1v22.1v22.1l65.4,0.1c42.2,0.1,65.4,0.1,65.4-0.1
					c0-0.1,9.4-0.2,26.1-0.2h26.1V38.5V16.4H269.7z"/>
			</defs>
			<clipPath id="SVGID_4_">
				<use xlink:href="#SVGID_3_"  style="overflow:visible;"/>
			</clipPath>
			<g transform="matrix(1 0 0 1 0 -1.525879e-05)" style="clip-path:url(#SVGID_4_);">

					<image style="overflow:visible;" width="4096" height="4096" xlink:href="unnamed.jpg"  transform="matrix(6.977339e-02 0 0 6.977339e-02 56.3225 -210.8653)">
				</image>
			</g>
		</g>
		<g>
			<defs>
				<path id="SVGID_5_" d="M452.7,16.7c-12.6,0-53.8,0.1-91.5,0.1L292.6,17V39v22.1l65.4,0.1c42.2,0.1,65.4,0.1,65.4-0.1
					c0-0.1,9.4-0.2,26.1-0.2h26.1V38.8V16.7H452.7z"/>
			</defs>
			<clipPath id="SVGID_6_">
				<use xlink:href="#SVGID_5_"  style="overflow:visible;"/>
			</clipPath>
			<g transform="matrix(1 0 0 1 -1.525879e-05 0)" style="clip-path:url(#SVGID_6_);">

					<image style="overflow:visible;" width="4096" height="4096" xlink:href="unnamed.jpg"  transform="matrix(6.977339e-02 0 0 6.977339e-02 239.631 -210.4893)">
				</image>
			</g>
		</g>
	</g>
	<g>
		<defs>
			<path id="SVGID_7_" d="M196.9,287.9h95.7V224v-63.9l-1,0.1c-6,0.6-14.3-1.6-18.6-4.8c-11.2-8.5-12.5-26.3-4.3-58.7
				c0.6-2.4,1-4.3,1-4.4c-0.1,0-8.7-3.4-19.2-7.4c-10.5-4-19.2-7.4-19.5-7.5c-0.3-0.1-0.5-0.1-0.6,0.1c0,0.1-0.4,1.5-0.8,3
				c-5.1,19-17.4,28.2-35.9,26.8c-15.5-1.2-25-9.8-29.6-26.9c-0.4-1.6-0.8-3-0.9-3c0,0-2.8,1-6.2,2.3c-3.4,1.3-12.1,4.6-19.4,7.4
				c-7.3,2.8-13.4,5.2-13.5,5.2c-0.1,0.1,0.1,1,0.4,2.1c8.7,33.1,7.7,50.7-3.1,60.4c-3.9,3.5-12.9,6-19,5.3l-1.2-0.1v63.9v63.9
				H196.9"/>
		</defs>
		<clipPath id="SVGID_8_">
			<use xlink:href="#SVGID_7_"  style="overflow:visible;"/>
		</clipPath>
		<g style="clip-path:url(#SVGID_8_);">

				<image style="overflow:visible;" width="4096" height="4096" xlink:href="unnamed.jpg"  transform="matrix(6.977339e-02 0 0 6.977339e-02 52.3987 58.5872)">
			</image>
		</g>
	</g>
	<g>
		<g>
			<defs>
				<path id="SVGID_9_" d="M165,305.6c-12.5,3.2-18.5,7.4-32.1,22.7c-13.3,15-17.3,17.5-27.9,17.8c-3.7,0.1-3.8,0.1-3.8,0.6
					c0,0.2,0.3,1.9,0.6,3.6c0.3,1.8,0.8,4.2,1,5.5c0.2,1.3,1.5,8.2,2.8,15.4c1.3,7.2,3.4,19,4.8,26.3c5.9,32.7,9.9,54.7,13.7,75.6
					c1.6,9.1,3,16.8,3.1,17l0.1,0.5h48.1h2V304.1C172.8,303.9,170.2,304.3,165,305.6z"/>
			</defs>
			<clipPath id="SVGID_10_">
				<use xlink:href="#SVGID_9_"  style="overflow:visible;"/>
			</clipPath>
			<g style="clip-path:url(#SVGID_10_);">

					<image style="overflow:visible;" width="4096" height="4096" xlink:href="unnamed.jpg"  transform="matrix(6.977339e-02 0 0 6.977339e-02 -104.7887 260.5507)">
				</image>
			</g>
		</g>
		<g>
			<defs>
				<path id="SVGID_11_" d="M223.6,490.1c0.2-0.8,4.4-21.1,5.7-27.2c0.3-1.6,1.2-5.5,1.8-8.8c0.7-3.2,3.8-18,6.8-32.7
					c6.2-29.9,8.7-41.5,10-47.9c0.5-2.4,1.5-7.3,2.3-10.9c0.7-3.6,1.8-8.5,2.3-10.9c1-4.9,1-5,0.6-5c-0.2,0-1.7-0.5-3.4-1
					c-9.6-3.2-13.3-5.7-25.4-17.5c-17.1-16.5-28.1-22.5-43.4-23.9c-1.3-0.1-2.5-0.2-3.5-0.3v186.4h46.1L223.6,490.1z"/>
			</defs>
			<clipPath id="SVGID_12_">
				<use xlink:href="#SVGID_11_"  style="overflow:visible;"/>
			</clipPath>
			<g style="clip-path:url(#SVGID_12_);">

					<image style="overflow:visible;" width="4096" height="4096" xlink:href="unnamed.jpg"  transform="matrix(6.977339e-02 0 0 6.977339e-02 176.6102 262.0075)">
				</image>
			</g>
		</g>
	</g>
	<g>
		<g>
			<defs>
				<path id="SVGID_13_" d="M299.8,521.8c-0.2-0.8-4.4-21.1-5.7-27.2c-0.3-1.6-1.2-5.5-1.8-8.8c-0.7-3.2-3.8-18-6.8-32.7
					c-6.2-29.9-8.7-41.5-10-47.9c-0.5-2.4-1.5-7.3-2.3-10.9c-0.7-3.6-1.8-8.5-2.3-10.9c-1-4.9-1-5-0.6-5c0.2,0,1.7-0.5,3.4-1
					c9.6-3.2,13.3-5.7,25.4-17.5c17.1-16.5,28.1-22.5,43.4-23.9c1.3-0.1,2.5-0.2,3.5-0.3v186.4h-46.1L299.8,521.8z"/>
			</defs>
			<clipPath id="SVGID_14_">
				<use xlink:href="#SVGID_13_"  style="overflow:visible;"/>
			</clipPath>
			<g style="clip-path:url(#SVGID_14_);">

					<image style="overflow:visible;" width="4096" height="4096" xlink:href="unnamed.jpg"  transform="matrix(6.977339e-02 0 0 6.977339e-02 61.8336 293.7708)">
				</image>
			</g>
		</g>
		<g>
			<defs>
				<path id="SVGID_15_" d="M358.3,337.4c12.5,3.2,18.5,7.4,32.1,22.7c13.3,15,17.3,17.5,27.9,17.8c3.7,0.1,3.8,0.1,3.8,0.6
					c0,0.2-0.3,1.9-0.6,3.6c-0.3,1.8-0.8,4.2-1,5.5c-0.2,1.3-1.5,8.2-2.8,15.4c-1.3,7.2-3.4,19-4.8,26.3
					C407,462,403,484,399.3,504.9c-1.6,9.1-3,16.8-3.1,17l-0.1,0.5H348h-2V336C350.5,335.7,353.2,336.1,358.3,337.4z"/>
			</defs>
			<clipPath id="SVGID_16_">
				<use xlink:href="#SVGID_15_"  style="overflow:visible;"/>
			</clipPath>
			<g style="clip-path:url(#SVGID_16_);">

					<image style="overflow:visible;" width="4096" height="4096" xlink:href="unnamed.jpg"  transform="matrix(6.977339e-02 0 0 6.977339e-02 343.3853 293.8017)">
				</image>
			</g>
		</g>
	</g>
	<g>
		<g>
			<defs>
				<polygon id="SVGID_17_" points="177.3,503.8 138,503.8 138,525.9 138,548 177.3,548 177.3,548 177.3,503.8 				"/>
			</defs>
			<clipPath id="SVGID_18_">
				<use xlink:href="#SVGID_17_"  style="overflow:visible;"/>
			</clipPath>
			<g style="clip-path:url(#SVGID_18_);">

					<image style="overflow:visible;" width="4096" height="4096" xlink:href="unnamed.jpg"  transform="matrix(6.977339e-02 0 0 6.977339e-02 -106.7294 277.4265)">
				</image>
			</g>
		</g>
		<g>
			<defs>
				<polygon id="SVGID_19_" points="177.4,503.7 216.7,503.7 216.7,525.8 216.7,548 177.4,548 177.4,548 177.4,503.7 				"/>
			</defs>
			<clipPath id="SVGID_20_">
				<use xlink:href="#SVGID_19_"  style="overflow:visible;"/>
			</clipPath>
			<g style="clip-path:url(#SVGID_20_);">

					<image style="overflow:visible;" width="4096" height="4096" xlink:href="unnamed.jpg"  transform="matrix(6.977339e-02 0 0 6.977339e-02 176.7884 277.3566)">
				</image>
			</g>
		</g>
	</g>
	<g>
		<g>
			<defs>
				<polygon id="SVGID_21_" points="345.9,532.1 306.6,532.1 306.6,554.2 306.6,576.4 345.9,576.4 345.9,576.4 345.9,532.1 				"/>
			</defs>
			<clipPath id="SVGID_22_">
				<use xlink:href="#SVGID_21_"  style="overflow:visible;"/>
			</clipPath>
			<g style="clip-path:url(#SVGID_22_);">

					<image style="overflow:visible;" width="4096" height="4096" xlink:href="unnamed.jpg"  transform="matrix(6.977339e-02 0 0 6.977339e-02 61.4838 306.1362)">
				</image>
			</g>
		</g>
		<g>
			<defs>
				<polygon id="SVGID_23_" points="346.1,532.7 385.4,532.7 385.4,554.9 385.4,577 346.1,577 346.1,577 346.1,532.7 				"/>
			</defs>
			<clipPath id="SVGID_24_">
				<use xlink:href="#SVGID_23_"  style="overflow:visible;"/>
			</clipPath>
			<g style="clip-path:url(#SVGID_24_);">

					<image style="overflow:visible;" width="4096" height="4096" xlink:href="unnamed.jpg"  transform="matrix(6.977339e-02 0 0 6.977339e-02 343.6123 306.4045)">
				</image>
			</g>
		</g>
	</g>
	<g>
		<g>
			<defs>
				<path id="SVGID_25_" d="M374,301.2c-44.8,0-81.4,0.1-81.4,0.2c0,0.1,0.6,2.3,1.3,4.9l1.3,4.7l-1.3,4.7c-0.7,2.6-1.3,4.8-1.3,5
					c0,0.2,21.9,0.2,81.4,0.2c2.7,0,5.2,0,7.7,0v-19.7C379.2,301.2,376.7,301.2,374,301.2z"/>
			</defs>
			<clipPath id="SVGID_26_">
				<use xlink:href="#SVGID_25_"  style="overflow:visible;"/>
			</clipPath>
			<g style="clip-path:url(#SVGID_26_);">

					<image style="overflow:visible;" width="4096" height="4096" xlink:href="unnamed.jpg"  transform="matrix(6.977339e-02 0 0 6.977339e-02 192.5986 270.0471)">
				</image>
			</g>
		</g>
		<g>
			<defs>
				<path id="SVGID_27_" d="M455.3,320.5c-0.1-0.2-0.7-2.4-1.4-5l-1.3-4.6l1.3-4.6c0.7-2.5,1.4-4.7,1.4-4.9c0.1-0.2-15-0.3-73.6-0.3
					v19.6C451.7,320.8,455.4,320.8,455.3,320.5z"/>
			</defs>
			<clipPath id="SVGID_28_">
				<use xlink:href="#SVGID_27_"  style="overflow:visible;"/>
			</clipPath>
			<g style="clip-path:url(#SVGID_28_);">

					<image style="overflow:visible;" width="4096" height="4096" xlink:href="unnamed.jpg"  transform="matrix(6.977339e-02 0 0 6.975310e-02 273.9098 288.289)">
				</image>
			</g>
		</g>
	</g>
</g>
<g>
	<path d="M75.1,400.4h1v7.2h3.5v0.9h-4.5V400.4z"/>
	<path d="M81.2,405.7c0,1.4,0.9,2,2,2c0.8,0,1.2-0.1,1.6-0.3l0.2,0.8c-0.4,0.2-1,0.4-1.9,0.4c-1.8,0-2.9-1.2-2.9-2.9s1-3.1,2.7-3.1
		c1.9,0,2.4,1.7,2.4,2.7c0,0.2,0,0.4,0,0.5H81.2z M84.3,405c0-0.7-0.3-1.7-1.5-1.7c-1.1,0-1.5,1-1.6,1.7H84.3z"/>
	<path d="M86.7,408.5v-5h-0.8v-0.8h0.8v-0.3c0-0.8,0.2-1.6,0.7-2c0.4-0.4,0.9-0.5,1.4-0.5c0.4,0,0.7,0.1,0.9,0.2l-0.1,0.8
		c-0.2-0.1-0.4-0.1-0.7-0.1c-0.9,0-1.1,0.8-1.1,1.7v0.3h1.4v0.8h-1.4v5H86.7z"/>
	<path d="M91.5,401v1.7H93v0.8h-1.5v3.1c0,0.7,0.2,1.1,0.8,1.1c0.3,0,0.5,0,0.6-0.1l0,0.8c-0.2,0.1-0.5,0.1-0.9,0.1
		c-0.5,0-0.9-0.2-1.1-0.4c-0.3-0.3-0.4-0.8-0.4-1.5v-3.2h-0.9v-0.8h0.9v-1.4L91.5,401z"/>
</g>
<g>
	<path d="M430.5,414.6c0.5-0.1,1.3-0.2,2-0.2c1.1,0,1.8,0.2,2.3,0.7c0.4,0.4,0.6,0.9,0.6,1.5c0,1.1-0.7,1.8-1.5,2.1v0
		c0.6,0.2,1,0.8,1.2,1.6c0.3,1.1,0.5,1.9,0.6,2.2h-1.1c-0.1-0.2-0.3-0.9-0.5-1.9c-0.2-1.1-0.7-1.5-1.6-1.6h-1v3.5h-1V414.6z
		 M431.5,418.3h1.1c1.1,0,1.8-0.6,1.8-1.5c0-1-0.8-1.5-1.9-1.5c-0.5,0-0.9,0-1,0.1V418.3z"/>
	<path d="M438.2,415.1c0,0.4-0.3,0.6-0.7,0.6c-0.4,0-0.6-0.3-0.6-0.6c0-0.4,0.3-0.7,0.7-0.7C437.9,414.5,438.2,414.8,438.2,415.1z
		 M437,422.6v-5.8h1.1v5.8H437z"/>
	<path d="M444.8,416.8c0,0.4,0,0.9,0,1.6v3.4c0,1.3-0.3,2.1-0.8,2.7c-0.6,0.5-1.4,0.7-2.1,0.7c-0.7,0-1.5-0.2-1.9-0.5l0.3-0.8
		c0.4,0.2,1,0.5,1.7,0.5c1.1,0,1.9-0.6,1.9-2v-0.6h0c-0.3,0.5-0.9,1-1.8,1c-1.4,0-2.5-1.2-2.5-2.8c0-2,1.3-3.1,2.6-3.1
		c1,0,1.6,0.5,1.8,1h0l0-0.9H444.8z M443.7,419.1c0-0.2,0-0.3-0.1-0.5c-0.2-0.6-0.7-1.1-1.5-1.1c-1,0-1.7,0.9-1.7,2.2
		c0,1.1,0.6,2.1,1.7,2.1c0.6,0,1.2-0.4,1.5-1.1c0.1-0.2,0.1-0.4,0.1-0.6V419.1z"/>
	<path d="M446.5,414.1h1.1v3.6h0c0.2-0.3,0.4-0.6,0.8-0.7c0.3-0.2,0.7-0.3,1.1-0.3c0.8,0,2,0.5,2,2.5v3.5h-1.1v-3.3
		c0-0.9-0.3-1.7-1.3-1.7c-0.7,0-1.2,0.5-1.4,1.1c-0.1,0.1-0.1,0.3-0.1,0.5v3.5h-1.1V414.1z"/>
	<path d="M454.4,415.1v1.7h1.5v0.8h-1.5v3.1c0,0.7,0.2,1.1,0.8,1.1c0.3,0,0.5,0,0.6-0.1l0,0.8c-0.2,0.1-0.5,0.1-0.9,0.1
		c-0.5,0-0.9-0.2-1.1-0.4c-0.3-0.3-0.4-0.8-0.4-1.5v-3.2h-0.9v-0.8h0.9v-1.4L454.4,415.1z"/>
</g>
</svg>
